<svg xmlns="http://www.w3.org/2000/svg" width="18" height="18">
  <g fill="none" fill-rule="evenodd">
    <path d="M0 0h18v18H0z"/>
    <path fill="#737F8D" d="M9 6.75C7.758 6.75 6.75 7.75725 6.75 9S7.758 11.25 9 11.25c1.24275 0 2.25-1.00725 2.25-2.25S10.24275 6.75 9 6.75zm0 3.75c-.828 0-1.5-.67125-1.5-1.5 0-.828.672-1.5 1.5-1.5s1.5.672 1.5 1.5c0 .82875-.672 1.5-1.5 1.5zM15.75 9c0-.8758125-.671625-1.5879375-1.5263437-1.670625-.0928125-.29109375-.2117813-.570375-.3501563-.83784375.5492813-.6631875.5214375-1.64278125-.1004062-2.26378125-.621-.621-1.60143755-.6496875-2.2637813-.10040625-.2683125-.138375-.54675-.25734375-.8386875-.35015625C10.58878125 2.92078125 9.87665625 2.25 9 2.25s-1.58878125.67078125-1.67146875 1.52634375C7.0374375 3.87 6.75815625 3.988125 6.4906875 4.1265 5.8275 3.5780625 4.84875 3.60590625 4.22775 4.22690625S3.5780625 5.8275 4.12734375 6.4906875c-.138375.26746875-.25734375.54675-.351.8386875C2.921625 7.41121875 2.25 8.12334375 2.25 9c0 .8775.671625 1.58878125 1.5271875 1.670625.0928125.29109375.21178125.570375.35015625.8386875C3.5780625 12.1725 3.60675 13.15125 4.22775 13.77225s1.60059375.6488438 2.2629375.1004063c.26746875.138375.54675.2573437.83784375.3501562C7.41121875 15.0792188 8.12334375 15.75 9 15.75s1.58878125-.6707812 1.67146875-1.5263437c.29109375-.0928125.570375-.2117813.8386875-.3501563.66234375.5492813 1.64278125.5205937 2.26378125-.1004062.621-.621.6496875-1.6005938.0995625-2.2637813.138375-.26746875.2565-.54675.3501562-.83784375C15.078375 10.58878125 15.75 9.8775 15.75 9zm-2.694.75c-.1065.5805-.342 1.11375-.66375 1.58175l.321.321c.29325.294.29325.76725 0 1.0605s-.76725.29325-1.0605 0l-.321-.321c-.46875.32025-1.002.555-1.58175.6615V13.5c0 .414-.33525.75-.75.75-.414 0-.75-.336-.75-.75v-.4455c-.57975-.1065-1.11225-.34125-1.58025-.663l-.321.321c-.29325.29325-.76725.29325-1.0605 0s-.29325-.7665 0-1.0605l.32025-.32025c-.3225-.468-.558-1.00125-.6645-1.58175H4.5c-.414 0-.75-.336-.75-.75s.336-.75.75-.75h.444c.1065-.5805.342-1.11375.6645-1.58175L5.28825 6.348c-.29325-.29325-.29325-.76725 0-1.0605s.76725-.29325 1.0605 0l.321.321c.468-.321 1.0005-.55575 1.58025-.66225V4.5c0-.41475.336-.75.75-.75.41475 0 .75.33525.75.75v.4455c.57975.1065 1.113.34125 1.581.663l.321-.321c.29325-.29325.768-.29325 1.0605 0 .29325.29325.29325.76725 0 1.0605l-.32025.32025c.3225.468.55725 1.00125.6645 1.58175H13.5c.41475 0 .75.336.75.75 0 .41475-.33525.75-.75.75h-.444z"/>
  </g>
</svg>